<?xml version="1.0" encoding="UTF-8" standalone="no"?>
<!-- Created with Inkscape (http://www.inkscape.org/) -->

<svg
   version="1.1"
   id="svg1"
   width="1080"
   height="1080"
   viewBox="0 0 1080 1080"
   sodipodi:docname="Logo10003.svg"
   inkscape:version="1.3.2 (091e20ef0f, 2023-11-25, custom)"
   xmlns:inkscape="http://www.inkscape.org/namespaces/inkscape"
   xmlns:sodipodi="http://sodipodi.sourceforge.net/DTD/sodipodi-0.dtd"
   xmlns="http://www.w3.org/2000/svg"
   xmlns:svg="http://www.w3.org/2000/svg">
  <sodipodi:namedview
     id="namedview1"
     pagecolor="#505050"
     bordercolor="#ffffff"
     borderopacity="1"
     inkscape:showpageshadow="0"
     inkscape:pageopacity="0"
     inkscape:pagecheckerboard="1"
     inkscape:deskcolor="#d1d1d1"
     showgrid="false"
     inkscape:zoom="0.77962963"
     inkscape:cx="607.33967"
     inkscape:cy="540"
     inkscape:window-width="1920"
     inkscape:window-height="1045"
     inkscape:window-x="1920"
     inkscape:window-y="35"
     inkscape:window-maximized="1"
     inkscape:current-layer="g8" />
  <defs
     id="defs1">
    <marker
       id="Arrow1Lstart"
       orient="auto"
       refX="0.0"
       refY="0.0"
       style="overflow:visible"
       inkscape:stockid="Arrow1Lstart">
      <path
         d="M 0.0,0.0 L 5.0,-5.0 L -12.5,0.0 L 5.0,5.0 L 0.0,0.0 z "
         transform="matrix(0.8 0 0 0.8 10 0)"
         style="fill-rule:evenodd;stroke:#000000;stroke-width:1.0pt;marker-start:none"
         id="path1" />
    </marker>
    <marker
       id="Arrow1Lend"
       orient="auto"
       refX="0.0"
       refY="0.0"
       style="overflow:visible"
       inkscape:stockid="Arrow1Lend">
      <path
         d="M 0.0,0.0 L 5.0,-5.0 L -12.5,0.0 L 5.0,5.0 L 0.0,0.0 z "
         transform="matrix(-0.8 9.79717e-17 -9.79717e-17 -0.8 -10 1.22465e-15)"
         style="fill-rule:evenodd;stroke:#000000;stroke-width:1.0pt;marker-start:none"
         id="path2" />
    </marker>
  </defs>
  <g
     inkscape:groupmode="layer"
     inkscape:label="Image"
     id="g1">
    <g
       fill="none"
       stroke="black"
       id="g8">
      <path
         style="fill:#154c8e;fill-opacity:1"
         d="m 505,1015.1136 -24.5,-1.6136 -0.27477,-4.5 -0.27478,-4.5 0.77478,-17.25041 0.77477,-17.25042 -0.0515,4.2e-4 -0.0515,4.1e-4 -27.40822,-5.50224 -27.40821,-5.50225 -25.31212,-8.6426 -25.31213,-8.64261 -0.33613,0.39485 -0.33614,0.39485 -9.32045,18 -9.32046,18 -0.99546,0.66647 -0.99546,0.66648 L 326.79143,965.89566 298.93059,951.95838 275.4653,936.31866 252,920.67894 l 0,-1.30057 0,-1.30057 10.947,-17.22014 10.94701,-17.22014 -0.51644,-0.83562 -0.51645,-0.83562 -19.81849,-17.42879 -19.81849,-17.42878 -18.17161,-20.57657 -18.17162,-20.57657 -1.19046,0.69608 L 194.5,807.34772 178.22021,817.67386 161.94042,828 l -1.30968,0 h -1.30968 l -15.63972,-23.4653 -15.63972,-23.46529 -13.93728,-27.86084 -13.93729,-27.86083 0.66648,-0.99035 0.66647,-0.99034 18,-9.31259 18,-9.31259 0.39485,-0.34912 0.39485,-0.34911 -8.64261,-25.31213 -8.6426,-25.31212 -5.50225,-27.40821 L 110,598.60296 l 0.001,-0.0515 0.001,-0.0515 -20.521026,0.84937 -20.521022,0.84938 -1.291345,-0.49554 -1.291346,-0.49553 L 64.582059,569.60384 62.786497,540 l 1.795562,-29.60384 1.795562,-29.60384 1.291346,-0.49553 1.291345,-0.49554 20.521022,0.84938 20.521026,0.84937 -0.001,-0.0515 -0.001,-0.0515 5.50224,-27.40822 5.50225,-27.40821 8.6426,-25.31212 8.64261,-25.31213 -0.39485,-0.34911 -0.39485,-0.34912 -18,-9.31259 -18,-9.31259 -0.66647,-0.99034 -0.66648,-0.99035 13.93729,-27.86083 13.93728,-27.86084 15.63972,-23.46529 15.63972,-23.4653 1.30968,0 1.30968,0 16.27979,10.32614 16.27979,10.32614 1.19045,0.69607 1.19046,0.69608 18.09357,-20.48819 18.09357,-20.48819 20.48819,-18.09357 20.48819,-18.09357 -0.69608,-1.19046 L 272.65228,194.5 262.32614,178.22021 252,161.94042 l 0,-1.30968 0,-1.30968 23.4653,-15.63972 23.46529,-15.63972 27.86084,-13.93728 27.86083,-13.93729 0.99546,0.66648 0.99546,0.66647 9.32046,18 9.32045,18 0.33614,0.39485 0.33613,0.39485 25.31213,-8.64261 25.31212,-8.6426 27.40821,-5.50225 27.40822,-5.50224 0.0515,0.001 0.0515,0.001 -0.86515,-20.480188 -0.86515,-20.480183 0.514,-1.339478 0.51401,-1.339478 29.60115,-1.765045 L 540,62.833493 l 29.60114,1.765045 29.60115,1.765045 0.49823,1.298365 0.49823,1.298364 -0.84938,20.521022 -0.84937,20.521026 0.0515,-0.001 0.0515,-0.001 27.40822,5.50224 27.40821,5.50225 25.31212,8.6426 25.31213,8.64261 0.33613,-0.39485 0.33614,-0.39485 9.32045,-18 9.32046,-18 0.99546,-0.66647 0.99546,-0.66648 27.86083,13.93729 27.86084,13.93728 23.46529,15.63972 L 828,159.32106 v 1.37804 1.37803 l -10.33254,16.21143 -10.33254,16.21144 -0.68968,1.19045 -0.68967,1.19046 20.48819,18.09357 20.48819,18.09357 18.09357,20.48819 18.09357,20.48819 1.19046,-0.69608 L 885.5,272.65228 901.77979,262.32614 918.05958,252 l 1.30968,0 1.30968,0 15.63972,23.4653 15.63972,23.46529 13.93728,27.86084 13.93729,27.86083 -0.66648,0.99546 -0.66647,0.99546 -18,9.32046 -18,9.32045 -0.39515,0.33643 -0.39514,0.33644 8.64152,25.27152 8.64153,25.27152 5.50362,27.44852 5.50362,27.44852 -0.001,0.0515 -0.001,0.0515 20.52103,-0.84937 20.52103,-0.84938 1.2913,0.49554 1.2914,0.49553 1.7955,29.60384 1.7956,29.60384 -1.7956,29.60384 -1.7955,29.60384 -1.2914,0.49553 -1.2913,0.49554 -20.52103,-0.84938 -20.52103,-0.84937 0.001,0.0515 0.001,0.0515 -5.50224,27.40822 -5.50225,27.40821 -8.6426,25.31212 -8.64261,25.31213 0.39485,0.33613 0.39485,0.33614 18,9.32045 18,9.32046 0.66647,0.99546 0.66648,0.99546 -13.93729,27.86083 -13.93728,27.86084 L 936.31866,804.5347 920.67894,828 h -1.30968 -1.30968 L 901.77979,817.67386 885.5,807.34772 l -1.19045,-0.69607 -1.19046,-0.69608 -18.09357,20.48819 -18.09357,20.48819 -20.48819,18.09357 -20.48819,18.09357 0.68967,1.19046 0.68968,1.19045 10.33254,16.21144 L 828,917.92287 v 1.37803 1.37804 l -23.4653,15.63972 -23.46529,15.63972 -27.86084,13.93728 -27.86083,13.93729 -0.99546,-0.66648 -0.99546,-0.66647 -9.32046,-18 -9.32045,-18 -0.33614,-0.39485 -0.33613,-0.39485 -25.31213,8.64261 -25.31212,8.6426 -27.40821,5.50225 -27.40822,5.50224 -0.0515,-0.001 -0.0515,-0.001 0.84937,20.52103 0.84938,20.52103 -0.49714,1.2955 -0.49713,1.2955 -28.85224,1.7066 -28.85224,1.7065 -6,-0.1583 -6,-0.1583 z m 29.18919,-135.3636 -1.97392,-3.25 -125.24372,-217 -125.24372,-217 -18.47477,-32 -18.47476,-32 -1.97741,-3.26085 -1.97742,-3.26084 -9.00801,18.26084 -9.00801,18.26085 -7.33447,21.27655 -7.33447,21.27655 -4.56888,23.72345 -4.56888,23.72345 -1.26853,20.6118 -1.26852,20.61181 1.267,20.88819 1.26701,20.8882 4.64017,23.92615 4.64017,23.92614 7.28099,21.07386 7.281,21.07385 10.04138,20.5 10.04138,20.5 11.84662,17.71575 11.84661,17.71576 15.24826,17.47797 15.24825,17.47798 17.47798,15.24825 17.47797,15.24826 17.71576,11.84661 17.71575,11.84662 20.5,10.04353 20.5,10.04353 21.72651,7.47343 21.7265,7.47343 20.2735,4.03181 20.27349,4.03181 15.5,1.28501 15.5,1.28501 6.33156,0.12762 6.33156,0.12762 z m 32.31081,2.17486 16,-1.08134 23.22416,-4.45475 23.22416,-4.45476 21.27584,-7.38389 21.27584,-7.38389 20.5,-10.02992 20.5,-10.02991 17.71575,-11.86122 17.71576,-11.86121 17.47797,-15.24826 17.47798,-15.24825 15.24825,-17.47798 15.24826,-17.47797 11.86121,-17.71576 L 837.1064,712.5 847.13268,692 l 10.02628,-20.5 7.27148,-21 7.27148,-21 4.65019,-24 4.65018,-24 1.26701,-20.8882 1.267,-20.88819 -1.26852,-20.61181 -1.26853,-20.6118 -4.56888,-23.72345 -4.56888,-23.72345 -7.34781,-21.27655 -7.34781,-21.27655 -8.94966,-18.33368 -8.94966,-18.33368 -2.0327,3.33368 -2.03271,3.33368 -143.70472,249 -143.70472,249 -1.97741,3.25 -1.97741,3.25 3.33156,0.003 3.33156,0.003 z M 644,572.93254 747.5,267.89891 747.72497,267.19945 747.94994,266.5 728.72497,253.87801 709.5,241.25602 l -19,-9.21965 -19,-9.21965 -21.27584,-7.37536 -21.27584,-7.37537 -23.22416,-4.46659 -23.22416,-4.46659 -21.25,-1.38159 -21.25,-1.3816 -21.25,1.3816 -21.25,1.38159 -23,4.42444 -23,4.42443 -21.5,7.42738 -21.5,7.42739 -19,9.18988 -19,9.18989 -19.22497,12.64189 -19.22497,12.64189 0.22497,0.6884 0.22497,0.6884 103.5,305.04219 103.5,305.0422 0.5,0.002 0.5,0.002 z m -130.59718,80.30215 -1.09717,-0.73469 2.29576,-34 2.29576,-34 0.0514,-1.81955 0.0514,-1.81955 1.75,0.31955 1.75,0.31955 14.96689,15.28789 14.96688,15.28788 -1.37416,2.20039 -1.37417,2.20039 -15.88721,18.76172 L 515.91102,654 l -0.70551,-0.0153 -0.70551,-0.0153 z m 49.2518,-49.7951 -36.84538,-37.36731 0.34538,-0.97636 0.34538,-0.97637 30.5,-28.16493 30.5,-28.16493 1.5,-1.4735 1.5,-1.47351 -13.5,7.966 -13.5,7.966 -29.31798,17.61266 L 504.86403,556 h -0.98065 -0.98066 L 469.20136,545.4457 435.5,534.8914 434.55,533.9457 433.6,533 l 1.044,-1.044 1.044,-1.044 32.906,-13.83833 32.906,-13.83834 84.88263,-35.69932 84.88262,-35.69933 1.32139,1.33166 1.32139,1.33166 -29.4533,85.5 -29.45331,85.5 -6.13474,17.75 -6.13474,17.75 -1.61597,-0.0965 -1.61597,-0.0965 z M 427.11596,401.25 l -1.92468,-3.75 -26.20146,-50 -26.20146,-50 -0.49012,-4.5 -0.49011,-4.5 2.34594,-2.18063 L 376.5,284.13873 404.40721,269.56937 432.31442,255 l 1.88824,0 1.88825,0 2.50102,2.50103 2.50103,2.50102 2.44375,5.24898 2.44375,5.24897 -0.006,2.5 -0.006,2.5 -0.76719,1.2071 -0.76719,1.2071 -17.46749,9.1341 -17.4675,9.13411 -0.80112,0.75991 -0.80112,0.75992 6.80112,13.12662 6.80112,13.12662 0.70407,0.0223 0.70406,0.0223 16.26669,-8.5 16.2667,-8.5 h 2.60492 2.60493 l 2.10813,2.25 2.10813,2.25 2.55642,5.5 2.55641,5.5 0.01,2.05887 0.01,2.05887 -1.25,1.54625 -1.25,1.54624 -16,8.23898 -16,8.23897 -0.76477,0.72068 -0.76477,0.72068 11.01477,21.07329 L 456,389.77613 v 1.41577 1.41577 l -3.25,3.13186 -3.25,3.13186 -6.5,3.06351 -6.5,3.06352 -3.72968,7.9e-4 -3.72967,7.9e-4 z m 190.85583,-7.81969 -7.47179,-3.56969 -2.75,-2.6174 -2.75,-2.6174 v -1.822 -1.822 L 615.5,360 626,339.01818 l 0.0147,-41.75909 0.0147,-41.75909 1.25843,-2.5 1.25843,-2.5 2.80489,-0.32395 2.80489,-0.32396 7.50122,3.56232 7.50123,3.56231 2.99015,2.12918 2.99016,2.12918 0.83233,2.18919 0.83233,2.1892 -0.84758,19.44327 -0.84759,19.44326 -0.61194,7.42717 -0.61194,7.42717 4.30775,-3.67825 4.30776,-3.67825 17.36587,-14.08848 17.36587,-14.08847 3.56331,0.66848 3.5633,0.66848 7.71528,3.87917 7.71528,3.87917 2.00882,2.55379 2.00881,2.5538 -0.5565,2.12806 -0.5565,2.12806 -25.09677,18.65606 -25.09677,18.65606 -9.74116,7.19541 -9.74115,7.1954 -10.44821,20.87833 -10.44821,20.87833 -1.64242,0.63025 L 628.83643,397 H 627.14 625.44358 Z M 510,370.72768 l -2.5,-1.28621 -1.14299,-2.47073 -1.14299,-2.47074 -1.15739,-61.03694 -1.15738,-61.03694 0.63055,-1.64319 0.63055,-1.64318 3.06905,-1.06987 L 510.29845,237 h 8.80372 8.80372 l 2.49794,1.13814 2.49794,1.13813 0.50418,2.61187 0.50419,2.61186 0.62233,49 0.62233,49 0.4549,1.63947 0.45491,1.63946 18.82788,-0.53296 18.82787,-0.53297 2.59497,0.65129 2.59497,0.6513 1.03927,3.7422 1.03928,3.74221 0.006,5.10078 0.006,5.10077 -1.09993,3.15525 -1.09992,3.15526 -2.15008,0.43253 -2.15007,0.43254 -31,0.56838 -31,0.56838 z"
         id="path9" />
    </g>
  </g>
</svg>
